<?xml version="1.0" encoding="UTF-8" standalone="no"?>
<!DOCTYPE svg PUBLIC "-//W3C//DTD SVG 1.1//EN"
 "http://www.w3.org/Graphics/SVG/1.1/DTD/svg11.dtd">
<!-- Generated by graphviz version 2.47.3 (20210619.1520)
 -->
<!-- Title: dependencies Pages: 1 -->
<svg width="316pt" height="250pt"
 viewBox="0.00 0.00 316.00 249.80" xmlns="http://www.w3.org/2000/svg" xmlns:xlink="http://www.w3.org/1999/xlink">
<g id="graph0" class="graph" transform="scale(1 1) rotate(0) translate(4 245.8)">
<title>dependencies</title>
<polygon fill="white" stroke="transparent" points="-4,4 -4,-245.8 312,-245.8 312,4 -4,4"/>
<text text-anchor="middle" x="154" y="-8.2" font-family="sans-serif" font-size="14.00">dependencies</text>
<g id="clust1" class="cluster">
<title>cluster_AppModule</title>
<polygon fill="none" stroke="black" stroke-dasharray="1,5" points="8,-108.8 8,-233.8 282,-233.8 282,-108.8 8,-108.8"/>
</g>
<g id="clust3" class="cluster">
<title>cluster_AppModule_imports</title>
<polygon fill="none" stroke="black" points="154,-116.8 154,-168.8 274,-168.8 274,-116.8 154,-116.8"/>
</g>
<g id="clust6" class="cluster">
<title>cluster_AppModule_providers</title>
<polygon fill="none" stroke="black" points="16,-116.8 16,-168.8 146,-168.8 146,-116.8 16,-116.8"/>
</g>
<g id="clust7" class="cluster">
<title>cluster_ContactModule</title>
<polygon fill="none" stroke="black" stroke-dasharray="1,5" points="128,-32.8 128,-100.8 300,-100.8 300,-32.8 128,-32.8"/>
</g>
<g id="clust12" class="cluster">
<title>cluster_ContactModule_providers</title>
<polygon fill="none" stroke="black" points="136,-40.8 136,-92.8 292,-92.8 292,-40.8 136,-40.8"/>
</g>
<!-- ContactModule -->
<g id="node1" class="node">
<title>ContactModule</title>
<polygon fill="#8dd3c7" stroke="black" points="265.6,-160.8 262.6,-164.8 241.6,-164.8 238.6,-160.8 162.4,-160.8 162.4,-124.8 265.6,-124.8 265.6,-160.8"/>
<text text-anchor="middle" x="214" y="-138.6" font-family="Times,serif" font-size="14.00">ContactModule</text>
</g>
<!-- AppModule -->
<g id="node2" class="node">
<title>AppModule</title>
<polygon fill="#8dd3c7" stroke="black" points="188.66,-225.8 185.66,-229.8 164.66,-229.8 161.66,-225.8 105.34,-225.8 105.34,-189.8 188.66,-189.8 188.66,-225.8"/>
<text text-anchor="middle" x="147" y="-203.6" font-family="Times,serif" font-size="14.00">AppModule</text>
</g>
<!-- ContactModule&#45;&gt;AppModule -->
<g id="edge1" class="edge">
<title>ContactModule&#45;&gt;AppModule</title>
<path fill="none" stroke="black" d="M175.64,-160.91C175.64,-160.91 175.64,-179.79 175.64,-179.79"/>
<polygon fill="black" stroke="black" points="172.14,-179.79 175.64,-189.79 179.14,-179.79 172.14,-179.79"/>
</g>
<!-- AppService -->
<g id="node3" class="node">
<title>AppService</title>
<ellipse fill="#fdb462" stroke="black" cx="81" cy="-142.8" rx="56.74" ry="18"/>
<text text-anchor="middle" x="81" y="-138.6" font-family="Times,serif" font-size="14.00">AppService</text>
</g>
<!-- AppService&#45;&gt;AppModule -->
<g id="edge2" class="edge">
<title>AppService&#45;&gt;AppModule</title>
<path fill="none" stroke="black" d="M121.4,-155.64C121.4,-155.64 121.4,-179.32 121.4,-179.32"/>
<polygon fill="black" stroke="black" points="117.9,-179.32 121.4,-189.32 124.9,-179.32 117.9,-179.32"/>
</g>
<!-- ContactService -->
<g id="node4" class="node">
<title>ContactService</title>
<ellipse fill="#fdb462" stroke="black" cx="214" cy="-66.8" rx="70.06" ry="18"/>
<text text-anchor="middle" x="214" y="-62.6" font-family="Times,serif" font-size="14.00">ContactService</text>
</g>
<!-- ContactService&#45;&gt;ContactModule -->
<g id="edge3" class="edge">
<title>ContactService&#45;&gt;ContactModule</title>
<path fill="none" stroke="black" d="M214,-84.81C214,-84.81 214,-114.65 214,-114.65"/>
<polygon fill="black" stroke="black" points="210.5,-114.65 214,-124.65 217.5,-114.65 210.5,-114.65"/>
</g>
</g>
</svg>
